<svg xmlns="http://www.w3.org/2000/svg" width="42.855" height="42.703" viewBox="0 0 42.855 42.703"><g transform="translate(0.75 0.75)"><rect width="5.659" height="14.374" transform="translate(0 26.829)" fill="none" stroke="#121469" stroke-linecap="round" stroke-linejoin="round" stroke-miterlimit="10" stroke-width="1.5"/><rect width="5.659" height="14.374" transform="translate(35.696 0)" fill="none" stroke="#121469" stroke-linecap="round" stroke-linejoin="round" stroke-miterlimit="10" stroke-width="1.5"/><path d="M109.816,100.51a5.819,5.819,0,1,1-5.305-3.41,5.71,5.71,0,0,1,2.274.455" transform="translate(-86.347 -83.837)" fill="none" stroke="#121469" stroke-linecap="round" stroke-linejoin="round" stroke-miterlimit="10" stroke-width="1.5"/><path d="M131.534,57.8H119.383a2.215,2.215,0,0,0-1.592.657l-4.32,4.269a4.262,4.262,0,0,0-1.01,1.642L111.4,67.981l3.36-.531,1.819-2.678a1.785,1.785,0,0,1,1.112-.733l1.819-.328a.341.341,0,0,1,.379.48L118.676,67a1.655,1.655,0,0,1-1.036.935l-1.743.556s-1.895,1.036-1.516,2.45h0a1.431,1.431,0,0,0,1.794,1.011l2.678-.783a1.626,1.626,0,0,0,.632-.379,11.75,11.75,0,0,1,2.5-1.945,25.627,25.627,0,0,1,3.512-.505,2.984,2.984,0,0,0,1.642-.682l4.118-3.309Z" transform="translate(-95.838 -54.465)" fill="none" stroke="#121469" stroke-linecap="round" stroke-linejoin="round" stroke-miterlimit="10" stroke-width="1.5"/><path d="M72.9,159.6h3.436a3.992,3.992,0,0,1,1.794.429l1.339.682a2.678,2.678,0,0,0,1.768.227l4.648-1.036a3.971,3.971,0,0,1,2.526.253l.733.328a2.431,2.431,0,0,1,1.263,1.339l.3.834-7.983,3.587" transform="translate(-67.064 -130.548)" fill="none" stroke="#121469" stroke-linecap="round" stroke-linejoin="round" stroke-miterlimit="10" stroke-width="1.5"/><path d="M72.2,167.977h3.436a3.605,3.605,0,0,1,.733.076l4.85,1.162a4.975,4.975,0,0,0,3.36-.379l13.01-6.568a.784.784,0,0,0,.379-.909,3.725,3.725,0,0,0-1.238-1.819,3.167,3.167,0,0,0-2.8-.455c-2.349.682-4.4,1.288-4.4,1.288" transform="translate(-66.541 -130.058)" fill="none" stroke="#121469" stroke-linecap="round" stroke-linejoin="round" stroke-miterlimit="10" stroke-width="1.5"/><circle cx="0.808" cy="0.808" r="0.808" transform="translate(2.021 37.288)" fill="#121469"/><circle cx="0.808" cy="0.808" r="0.808" transform="translate(37.717 10.812)" fill="#121469"/></g></svg>